# xmcd database file
#
# Track frame offsets:
# 150
# 19362
# 40568
# 59967
# 79385
# 97977
# 117486
# 133733
#
# Disc length: 2049 seconds
#
# Revision: 0
# Processed by: cddbd v1.5.2PL0 Copyright (c) Steve Scherf et al.
# Submitted via: CD-Runner 2006.50
#
DISCID=7007ff08
DTITLE=Jets - Greatest Hits
DYEAR=1900
DGENRE=Pop
TTITLE0=Crush On You
TTITLE1=Curiosity
TTITLE2=Make It Real
TTITLE3=Rocket 2 U
TTITLE4=Cross My Broken Heart
TTITLE5=You Got It All
TTITLE6=I Do You
TTITLE7=That's Why God Made The Moon
EXTD=
EXTT0=
EXTT1=
EXTT2=
EXTT3=
EXTT4=
EXTT5=
EXTT6=
EXTT7=
PLAYORDER=
